Motion_kv06_l
version=1
nRows=5
nColumns=43
inDegrees=yes
endheader
time	pelvis_tilt	pelvis_list	pelvis_rotation	pelvis_tx	pelvis_ty	pelvis_tz	hip_flexion_r	hip_adduction_r	hip_rotation_r	knee_angle_r	ankle_angle_r	subtalar_angle_r	mtp_angle_r	hip_flexion_l	hip_adduction_l	hip_rotation_l	knee_angle_l	ankle_angle_l	subtalar_angle_l	mtp_angle_l	lumbar_extension	lumbar_bending	lumbar_rotation	neck_flexion	neck_lateral_bending	neck_rotation	arm_flex_r	arm_add_r	arm_rot_r	elbow_flex_r	pro_sup_r	wrist_flex_r	wrist_dev_r	hand_finger_flex_r	arm_flex_l	arm_add_l	arm_rot_l	elbow_flex_l	pro_sup_l	wrist_flex_l	wrist_dev_l	hand_finger_flex_l
      0.00250000	      0.46250174	    -26.77245073	     92.44531037	     -0.01319233	      0.75843731	      1.90260936	     62.35428139	     -8.08632281	     -3.65009058	    -76.95237350	     35.36615465	      5.03982100	     -0.48985752	     62.32999293	     -2.39626226	     -0.57555690	    -75.76243374	     39.30932534	     -0.78277701	    -10.16541273	    -16.67487555	     -0.30343483	     -1.11852299	     31.33534523	      2.78878048	      1.72167150	    101.60507479	    -42.53731542	     36.29810326	     66.76538023	    140.23446687	      9.28291539	    -13.40308605	    -15.79983797	    113.20147928	    -30.39498241	     56.33823998	     54.66627236	    131.42960498	    -34.17280426	     -3.18399739	     55.34037279
      0.00500000	      0.40987687	    -26.81960972	     92.41152075	     -0.01308830	      0.75625622	      1.90192891	     62.64889686	     -8.15398854	     -3.60395177	    -77.50864801	     35.65687078	      5.08782932	     -0.45411688	     62.61811146	     -2.37857035	     -0.58375122	    -76.33962103	     39.40335222	     -0.67996976	    -10.13956247	    -16.78428356	     -0.36510121	     -1.13109446	     31.77191235	      2.77402314	      1.80430977	    102.34958566	    -42.34056728	     36.47969192	     66.23987443	    140.33231101	      9.87105075	    -13.52227532	    -15.58887285	    113.87907248	    -30.18430130	     56.71467965	     54.03552538	    131.32705573	    -33.87461752	     -3.16562995	     55.40866661
      0.00750000	      0.38785119	    -26.84290512	     92.38378555	     -0.01306501	      0.75390883	      1.90125905	     62.97298793	     -8.19740152	     -3.58156557	    -78.15343248	     35.75299344	      5.15615579	     -0.42728148	     62.91426907	     -2.38953868	     -0.58542751	    -76.98756555	     39.55664066	     -0.64315453	    -10.08625946	    -16.89487579	     -0.36797478	     -1.17525484	     32.06595065	      2.84646463	      1.82518903	    103.30469889	    -42.09250067	     36.94383997	     65.57562138	    140.35812243	     10.74514662	    -13.77245882	    -15.26604706	    114.64207987	    -30.12462599	     57.31272732	     53.49427307	    131.20276887	    -33.51351806	     -3.34650567	     55.49588791
      0.01000000	      0.40498114	    -26.84552247	     92.36749512	     -0.01319044	      0.75161784	      1.90042548	     63.24711693	     -8.25028253	     -3.60183108	    -78.79690659	     35.80611336	      5.20584412	     -0.37479232	     63.18675930	     -2.40735039	     -0.56884358	    -77.65872384	     39.62629660	     -0.59977664	     -9.98790635	    -17.00004421	     -0.27578947	     -1.24114924	     32.17904319	      2.70171928	      1.98321917	    104.40759985	    -41.82564920	     37.66850236	     64.88239816	    140.18155367	     11.91730037	    -14.26820972	    -14.86277139	    115.44081384	    -30.36024521	     58.23145354	     53.20107507	    130.81258308	    -33.13087184	     -3.84061637	     55.59186859
      0.01250000	      0.43136050	    -26.86834408	     92.37033468	     -0.01302864	      0.74960369	      1.89973356	     63.49730688	     -8.24752240	     -3.61905102	    -79.31743386	     35.91895314	      5.19644586	     -0.32997056	     63.44083611	     -2.43071023	     -0.51315031	    -78.20430467	     39.76263754	     -0.62702954	     -9.91851865	    -17.13803732	     -0.23431725	     -1.32605945	     32.64996731	      2.67583061	      2.02415187	    105.12371790	    -41.45600991	     37.83776933	     64.26661738	    140.13892387	     12.31979916	    -14.29895571	    -14.73420532	    115.98992118	    -30.32578363	     58.43340751	     52.72635777	    130.60444303	    -32.99330413	     -3.94605488	     55.59943330
